<svg width="80" height="80" viewBox="0 0 80 80" fill="none" xmlns="http://www.w3.org/2000/svg">
<path d="M71.8662 35.8001L67.3662 30.5334C66.5329 29.5334 65.8329 27.6668 65.8329 26.3334V20.6668C65.8329 17.1334 62.9329 14.2334 59.3995 14.2334H53.7329C52.3995 14.2334 50.4995 13.5334 49.4995 12.7001L44.2329 8.2001C41.9329 6.23343 38.1662 6.23343 35.8662 8.2001L30.5329 12.7001C29.5329 13.5334 27.6662 14.2334 26.3329 14.2334H20.5662C17.0329 14.2334 14.1329 17.1334 14.1329 20.6668V26.3334C14.1329 27.6334 13.4662 29.5001 12.6329 30.5001L8.13286 35.8001C6.19953 38.1334 6.19953 41.8668 8.13286 44.1334L12.6329 49.4334C13.4662 50.4001 14.1329 52.3001 14.1329 53.6001V59.3001C14.1329 62.8334 17.0329 65.7334 20.5662 65.7334H26.3662C27.6662 65.7334 29.5662 66.4334 30.5662 67.2668L35.8329 71.7668C38.1329 73.7334 41.8995 73.7334 44.1995 71.7668L49.4662 67.2668C50.4662 66.4334 52.3329 65.7334 53.6662 65.7334H59.3329C62.8662 65.7334 65.7662 62.8334 65.7662 59.3001V53.6334C65.7662 52.3001 66.4662 50.4334 67.2995 49.4334L71.7995 44.1668C73.8329 41.9001 73.8329 38.1334 71.8662 35.8001ZM49.3662 54.1334L46.0995 46.8001C45.9995 46.8001 45.8995 46.8668 45.7995 46.8668H34.1329C34.0329 46.8668 33.9329 46.8334 33.8329 46.8001L30.5662 54.1334L25.9995 52.1001L37.6662 25.8334H42.2329L53.8995 52.1001L49.3662 54.1334Z" fill="#FF7300"/>
<path d="M36.0669 41.867H43.9336L40.0002 33.0337L36.0669 41.867Z" fill="#FF7300"/>
</svg>
